<mxfile host="app.diagrams.net" modified="2023-08-21T03:06:46.665Z" agent="Mozilla/5.0 (Windows NT 10.0; Win64; x64) AppleWebKit/537.36 (KHTML, like Gecko) Chrome/115.0.0.0 Safari/537.36 Edg/115.0.1901.203" etag="6hMBLlckmpgv1ic_TaHV" version="21.6.8" type="github" pages="2">
  <diagram id="i5fcbizfy0IXlPW4B0TW" name="Page-1">
    <mxGraphModel dx="2074" dy="1124" grid="1" gridSize="20" guides="1" tooltips="1" connect="1" arrows="1" fold="1" page="1" pageScale="1" pageWidth="850" pageHeight="1100" math="0" shadow="0">
      <root>
        <mxCell id="0" />
        <mxCell id="1" parent="0" />
        <mxCell id="L5YEwd3Twn-e9qp4H_Mx-68" style="edgeStyle=orthogonalEdgeStyle;rounded=0;orthogonalLoop=1;jettySize=auto;html=1;exitX=1;exitY=0.25;exitDx=0;exitDy=0;entryX=0;entryY=0.25;entryDx=0;entryDy=0;" edge="1" parent="1" source="L5YEwd3Twn-e9qp4H_Mx-48" target="L5YEwd3Twn-e9qp4H_Mx-54">
          <mxGeometry relative="1" as="geometry" />
        </mxCell>
        <mxCell id="L5YEwd3Twn-e9qp4H_Mx-48" value="" style="rounded=0;whiteSpace=wrap;html=1;" vertex="1" parent="1">
          <mxGeometry x="80" y="340" width="120" height="190" as="geometry" />
        </mxCell>
        <mxCell id="L5YEwd3Twn-e9qp4H_Mx-49" value="" style="ellipse;whiteSpace=wrap;html=1;aspect=fixed;direction=south;" vertex="1" parent="1">
          <mxGeometry x="168" y="448" width="20" height="20" as="geometry" />
        </mxCell>
        <mxCell id="L5YEwd3Twn-e9qp4H_Mx-50" value="HCM.EC" style="text;html=1;strokeColor=none;fillColor=none;align=center;verticalAlign=middle;whiteSpace=wrap;rounded=0;" vertex="1" parent="1">
          <mxGeometry x="104" y="533" width="60" height="30" as="geometry" />
        </mxCell>
        <mxCell id="L5YEwd3Twn-e9qp4H_Mx-51" value="" style="endArrow=none;html=1;rounded=0;align=center;strokeWidth=3;" edge="1" parent="1">
          <mxGeometry width="50" height="50" relative="1" as="geometry">
            <mxPoint x="107" y="483" as="sourcePoint" />
            <mxPoint x="187" y="483" as="targetPoint" />
          </mxGeometry>
        </mxCell>
        <mxCell id="L5YEwd3Twn-e9qp4H_Mx-52" value="" style="endArrow=none;html=1;rounded=0;align=center;strokeWidth=3;" edge="1" parent="1">
          <mxGeometry width="50" height="50" relative="1" as="geometry">
            <mxPoint x="107" y="495" as="sourcePoint" />
            <mxPoint x="187" y="495" as="targetPoint" />
          </mxGeometry>
        </mxCell>
        <mxCell id="L5YEwd3Twn-e9qp4H_Mx-53" value="" style="endArrow=none;html=1;rounded=0;align=center;strokeWidth=3;" edge="1" parent="1">
          <mxGeometry width="50" height="50" relative="1" as="geometry">
            <mxPoint x="107" y="506" as="sourcePoint" />
            <mxPoint x="187" y="506" as="targetPoint" />
          </mxGeometry>
        </mxCell>
        <mxCell id="L5YEwd3Twn-e9qp4H_Mx-70" style="edgeStyle=orthogonalEdgeStyle;rounded=0;orthogonalLoop=1;jettySize=auto;html=1;exitX=1;exitY=0.25;exitDx=0;exitDy=0;entryX=0;entryY=0.25;entryDx=0;entryDy=0;" edge="1" parent="1" source="L5YEwd3Twn-e9qp4H_Mx-54" target="L5YEwd3Twn-e9qp4H_Mx-60">
          <mxGeometry relative="1" as="geometry" />
        </mxCell>
        <mxCell id="L5YEwd3Twn-e9qp4H_Mx-54" value="" style="rounded=0;whiteSpace=wrap;html=1;" vertex="1" parent="1">
          <mxGeometry x="415" y="340" width="120" height="190" as="geometry" />
        </mxCell>
        <mxCell id="L5YEwd3Twn-e9qp4H_Mx-55" value="" style="ellipse;whiteSpace=wrap;html=1;aspect=fixed;direction=south;" vertex="1" parent="1">
          <mxGeometry x="503" y="448" width="20" height="20" as="geometry" />
        </mxCell>
        <mxCell id="L5YEwd3Twn-e9qp4H_Mx-56" value="CAP" style="text;html=1;strokeColor=none;fillColor=none;align=center;verticalAlign=middle;whiteSpace=wrap;rounded=0;" vertex="1" parent="1">
          <mxGeometry x="439" y="533" width="60" height="30" as="geometry" />
        </mxCell>
        <mxCell id="L5YEwd3Twn-e9qp4H_Mx-57" value="" style="endArrow=none;html=1;rounded=0;align=center;strokeWidth=3;" edge="1" parent="1">
          <mxGeometry width="50" height="50" relative="1" as="geometry">
            <mxPoint x="442" y="483" as="sourcePoint" />
            <mxPoint x="522" y="483" as="targetPoint" />
          </mxGeometry>
        </mxCell>
        <mxCell id="L5YEwd3Twn-e9qp4H_Mx-58" value="" style="endArrow=none;html=1;rounded=0;align=center;strokeWidth=3;" edge="1" parent="1">
          <mxGeometry width="50" height="50" relative="1" as="geometry">
            <mxPoint x="442" y="495" as="sourcePoint" />
            <mxPoint x="522" y="495" as="targetPoint" />
          </mxGeometry>
        </mxCell>
        <mxCell id="L5YEwd3Twn-e9qp4H_Mx-59" value="" style="endArrow=none;html=1;rounded=0;align=center;strokeWidth=3;" edge="1" parent="1">
          <mxGeometry width="50" height="50" relative="1" as="geometry">
            <mxPoint x="442" y="506" as="sourcePoint" />
            <mxPoint x="522" y="506" as="targetPoint" />
          </mxGeometry>
        </mxCell>
        <mxCell id="L5YEwd3Twn-e9qp4H_Mx-60" value="" style="rounded=0;whiteSpace=wrap;html=1;" vertex="1" parent="1">
          <mxGeometry x="720" y="340" width="120" height="190" as="geometry" />
        </mxCell>
        <mxCell id="L5YEwd3Twn-e9qp4H_Mx-61" value="" style="ellipse;whiteSpace=wrap;html=1;aspect=fixed;direction=south;" vertex="1" parent="1">
          <mxGeometry x="808" y="448" width="20" height="20" as="geometry" />
        </mxCell>
        <mxCell id="L5YEwd3Twn-e9qp4H_Mx-62" value="IWAM" style="text;html=1;strokeColor=none;fillColor=none;align=center;verticalAlign=middle;whiteSpace=wrap;rounded=0;" vertex="1" parent="1">
          <mxGeometry x="750" y="535" width="60" height="30" as="geometry" />
        </mxCell>
        <mxCell id="L5YEwd3Twn-e9qp4H_Mx-63" value="" style="endArrow=none;html=1;rounded=0;align=center;strokeWidth=3;" edge="1" parent="1">
          <mxGeometry width="50" height="50" relative="1" as="geometry">
            <mxPoint x="747" y="483" as="sourcePoint" />
            <mxPoint x="827" y="483" as="targetPoint" />
          </mxGeometry>
        </mxCell>
        <mxCell id="L5YEwd3Twn-e9qp4H_Mx-64" value="" style="endArrow=none;html=1;rounded=0;align=center;strokeWidth=3;" edge="1" parent="1">
          <mxGeometry width="50" height="50" relative="1" as="geometry">
            <mxPoint x="747" y="495" as="sourcePoint" />
            <mxPoint x="827" y="495" as="targetPoint" />
          </mxGeometry>
        </mxCell>
        <mxCell id="L5YEwd3Twn-e9qp4H_Mx-65" value="" style="endArrow=none;html=1;rounded=0;align=center;strokeWidth=3;" edge="1" parent="1">
          <mxGeometry width="50" height="50" relative="1" as="geometry">
            <mxPoint x="747" y="506" as="sourcePoint" />
            <mxPoint x="827" y="506" as="targetPoint" />
          </mxGeometry>
        </mxCell>
      </root>
    </mxGraphModel>
  </diagram>
  <diagram id="8AZRGhuMNjotM4qLdo41" name="Page-2">
    <mxGraphModel dx="1290" dy="549" grid="1" gridSize="10" guides="1" tooltips="1" connect="1" arrows="1" fold="1" page="1" pageScale="1" pageWidth="850" pageHeight="1100" math="0" shadow="0">
      <root>
        <mxCell id="0" />
        <mxCell id="1" parent="0" />
      </root>
    </mxGraphModel>
  </diagram>
</mxfile>
